<svg xmlns="http://www.w3.org/2000/svg" version="1.1" xmlns:xlink="http://www.w3.org/1999/xlink" xmlns:svgjs="http://svgjs.dev/svgjs" width="2000" height="368" viewBox="0 0 2000 368"><g transform="matrix(1,0,0,1,-1.2121212121213603,0.79032798484198)"><svg viewBox="0 0 396 73" data-background-color="#ebe3d6" preserveAspectRatio="xMidYMid meet" height="368" width="2000" xmlns="http://www.w3.org/2000/svg" xmlns:xlink="http://www.w3.org/1999/xlink"><g id="tight-bounds" transform="matrix(1,0,0,1,0.24000000000003752,-0.15677701873224237)"><svg viewBox="0 0 395.5199999999999 73.3135540374645" height="73.3135540374645" width="395.5199999999999"><g><svg viewBox="0 0 505.1492393946843 93.63442065975497" height="73.3135540374645" width="395.5199999999999"><g transform="matrix(1,0,0,1,109.62923939468428,12.940791856738933)"><svg viewBox="0 0 395.52 67.7528369462771" height="67.7528369462771" width="395.52"><g id="textblocktransform"><svg viewBox="0 0 395.52 67.7528369462771" height="67.7528369462771" width="395.52" id="textblock"><g><svg viewBox="0 0 395.52 67.7528369462771" height="67.7528369462771" width="395.52"><g transform="matrix(1,0,0,1,0,0)"><svg width="395.52" viewBox="1.35 -35.5 212.18 36.35" height="67.7528369462771" data-palette-color="url(#8a63df07-6646-4631-8665-9bf395b25447)"></svg></g></svg></g></svg></g></svg></g><g><svg viewBox="0 0 93.63442065975497 93.63442065975497" height="93.63442065975497" width="93.63442065975497"><g><svg xmlns="http://www.w3.org/2000/svg" xmlns:xlink="http://www.w3.org/1999/xlink" version="1.1" x="0" y="0" viewBox="0 0 128 128" style="enable-background:new 0 0 128 128;" xml:space="preserve" height="93.63442065975497" width="93.63442065975497" class="icon-icon-0" data-fill-palette-color="accent" id="icon-0"><path d="M0 60v4 56c0 4.418 3.582 8 8 8h112c4.418 0 8-3.582 8-8V64v-4V44H0V60zM106.317 48H124v12h-22.188L106.317 48zM66.133 48h17.956l-4.505 12H61.628L66.133 48zM25.948 48h17.956l-4.505 12H21.443L25.948 48zM4 64h120v56c0 2.206-1.794 4-4 4H8c-2.206 0-4-1.794-4-4V64z" fill="#ff6f22" data-fill-palette-color="accent"></path><path d="M118.084 0c-0.454 0-0.915 0.038-1.377 0.118L6.613 19.151c-4.344 0.75-7.25 4.85-6.493 9.154L2.177 40 128 18.249l-2.058-11.692C125.266 2.71 121.893 0 118.084 0zM40.134 29.379l-17.64 3.05 2.294-12.361 17.639-3.048L40.134 29.379zM79.617 22.554l-17.639 3.049 2.292-12.36 17.64-3.05L79.617 22.554zM101.462 18.777l2.292-12.36 13.632-2.356C117.618 4.021 117.852 4 118.084 4c1.939 0 3.587 1.367 3.919 3.25l1.362 7.741L101.462 18.777z" fill="#ff6f22" data-fill-palette-color="accent"></path><circle cx="64" cy="105" r="4.0" fill="#ff6f22" data-fill-palette-color="accent"></circle><circle cx="64" cy="83" r="4.0" fill="#ff6f22" data-fill-palette-color="accent"></circle><circle cx="53" cy="94" r="4.0" fill="#ff6f22" data-fill-palette-color="accent"></circle><path d="M62.857 119.971C62.906 119.979 62.949 120 63 120h26c0.552 0 1-0.447 1-1s-0.448-1-1-1H74.011C83.4 114.079 90 104.812 90 94.001 90 79.641 78.359 68 64 68S38 79.641 38 94.001C38 107.976 49.029 119.372 62.857 119.971zM64 111c-3.314 0-6-2.687-6-6s2.686-6 6-6c3.314 0 6 2.687 6 6S67.314 111 64 111zM75 88c3.313 0 6 2.686 6 6s-2.687 6-6 6-6-2.686-6-6S71.687 88 75 88zM64 77c3.314 0 6 2.687 6 6s-2.686 6-6 6c-3.314 0-6-2.687-6-6S60.686 77 64 77zM53 88c3.313 0 6 2.686 6 6s-2.687 6-6 6-6-2.687-6-6C47 90.686 49.687 88 53 88z" fill="#ff6f22" data-fill-palette-color="accent"></path><circle cx="75" cy="94" r="4.0" fill="#ff6f22" data-fill-palette-color="accent"></circle></svg></g></svg></g></svg></g><defs></defs><mask id="9c8fd820-7a11-4ef7-bd52-de475f4f565a"><g id="SvgjsG1712"><svg viewBox="0 0 395.5199999999999 73.3135540374645" height="73.3135540374645" width="395.5199999999999"><g><svg viewBox="0 0 505.1492393946843 93.63442065975497" height="73.3135540374645" width="395.5199999999999"><g transform="matrix(1,0,0,1,109.62923939468428,12.940791856738933)"><svg viewBox="0 0 395.52 67.7528369462771" height="67.7528369462771" width="395.52"><g id="SvgjsG1711"><svg viewBox="0 0 395.52 67.7528369462771" height="67.7528369462771" width="395.52" id="SvgjsSvg1710"><g><svg viewBox="0 0 395.52 67.7528369462771" height="67.7528369462771" width="395.52"><g transform="matrix(1,0,0,1,0,0)"><svg width="395.52" viewBox="1.35 -35.5 212.18 36.35" height="67.7528369462771" data-palette-color="url(#8a63df07-6646-4631-8665-9bf395b25447)"><path d="M29.95-34.65L32 0 24.6 0 24.3-13.75Q24.15-18.5 24.15-23L24.15-23Q24.15-26.15 24.2-27.65L24.2-27.65 20.35-3.7 13-3.7 8.95-27.7Q9.05-24.9 9.05-19.9L9.05-19.9Q9.05-15.85 9-13.65L9-13.65 8.7 0 1.35 0 3.45-34.65 13.15-34.65 16.8-10.95 20.1-34.65 29.95-34.65ZM47.85-35.5Q54.25-35.5 57.62-30.98 61-26.45 61-17.35L61-17.35Q61-8.35 57.6-3.75 54.2 0.85 47.85 0.85L47.85 0.85Q41.5 0.85 38.12-3.68 34.75-8.2 34.75-17.35L34.75-17.35Q34.75-26.35 38.12-30.93 41.5-35.5 47.85-35.5L47.85-35.5ZM47.85-29.75Q45.25-29.75 44.07-26.93 42.9-24.1 42.9-17.35L42.9-17.35Q42.9-12.65 43.42-9.95 43.95-7.25 45.02-6.08 46.1-4.9 47.85-4.9L47.85-4.9Q49.65-4.9 50.72-6.05 51.8-7.2 52.32-9.93 52.85-12.65 52.85-17.35L52.85-17.35Q52.85-24.15 51.67-26.95 50.5-29.75 47.85-29.75L47.85-29.75ZM79.6-34.65L87.25-34.65 79.85 0 69.75 0 61.95-34.65 69.8-34.65 74.9-6.2 79.6-34.65ZM89.09-34.65L96.94-34.65 96.94 0 89.09 0 89.09-34.65ZM101.59-34.65L119.89-34.65 119.09-29.05 109.44-29.05 109.44-20.35 117.94-20.35 117.94-14.85 109.44-14.85 109.44-5.7 119.74-5.7 119.74 0 101.59 0 101.59-34.65ZM132.09-34.65Q138.54-34.65 141.94-31.8 145.34-28.95 145.34-23.4L145.34-23.4Q145.34-17.6 142.09-14.63 138.84-11.65 132.89-11.65L132.89-11.65 131.04-11.65 131.04 0 123.19 0 123.19-34.65 132.09-34.65ZM132.24-17.35Q134.94-17.35 136.11-18.73 137.29-20.1 137.29-23.4L137.29-23.4Q137.29-26.3 136.16-27.68 135.04-29.05 132.34-29.05L132.34-29.05 131.04-29.05 131.04-17.35 132.24-17.35ZM148.14-34.65L155.99-34.65 155.99-6.2 166.89-6.2 166.09 0 148.14 0 148.14-34.65ZM169.43-34.65L187.73-34.65 186.93-29.05 177.28-29.05 177.28-20.35 185.78-20.35 185.78-14.85 177.28-14.85 177.28-5.7 187.58-5.7 187.58 0 169.43 0 169.43-34.65ZM212.88-34.65L205.48-18.7 213.53 0 205.33 0 200.78-13.5 196.48 0 188.38 0 196.13-18.4 188.93-34.65 197.13-34.65 200.88-23.25 204.88-34.65 212.88-34.65Z" opacity="1" transform="matrix(1,0,0,1,0,0)" fill="white" class="wordmark-text-0" id="SvgjsPath1709"></path></svg></g></svg></g></svg></g></svg></g><g><svg viewBox="0 0 93.63442065975497 93.63442065975497" height="93.63442065975497" width="93.63442065975497"><g><svg xmlns="http://www.w3.org/2000/svg" xmlns:xlink="http://www.w3.org/1999/xlink" version="1.1" x="0" y="0" viewBox="0 0 128 128" style="enable-background:new 0 0 128 128;" xml:space="preserve" height="93.63442065975497" width="93.63442065975497" class="icon-icon-0" data-fill-palette-color="accent" id="SvgjsSvg1708"><path d="M0 60v4 56c0 4.418 3.582 8 8 8h112c4.418 0 8-3.582 8-8V64v-4V44H0V60zM106.317 48H124v12h-22.188L106.317 48zM66.133 48h17.956l-4.505 12H61.628L66.133 48zM25.948 48h17.956l-4.505 12H21.443L25.948 48zM4 64h120v56c0 2.206-1.794 4-4 4H8c-2.206 0-4-1.794-4-4V64z" fill="black"></path><path d="M118.084 0c-0.454 0-0.915 0.038-1.377 0.118L6.613 19.151c-4.344 0.75-7.25 4.85-6.493 9.154L2.177 40 128 18.249l-2.058-11.692C125.266 2.71 121.893 0 118.084 0zM40.134 29.379l-17.64 3.05 2.294-12.361 17.639-3.048L40.134 29.379zM79.617 22.554l-17.639 3.049 2.292-12.36 17.64-3.05L79.617 22.554zM101.462 18.777l2.292-12.36 13.632-2.356C117.618 4.021 117.852 4 118.084 4c1.939 0 3.587 1.367 3.919 3.25l1.362 7.741L101.462 18.777z" fill="black"></path><circle cx="64" cy="105" r="4.0" fill="black"></circle><circle cx="64" cy="83" r="4.0" fill="black"></circle><circle cx="53" cy="94" r="4.0" fill="black"></circle><path d="M62.857 119.971C62.906 119.979 62.949 120 63 120h26c0.552 0 1-0.447 1-1s-0.448-1-1-1H74.011C83.4 114.079 90 104.812 90 94.001 90 79.641 78.359 68 64 68S38 79.641 38 94.001C38 107.976 49.029 119.372 62.857 119.971zM64 111c-3.314 0-6-2.687-6-6s2.686-6 6-6c3.314 0 6 2.687 6 6S67.314 111 64 111zM75 88c3.313 0 6 2.686 6 6s-2.687 6-6 6-6-2.686-6-6S71.687 88 75 88zM64 77c3.314 0 6 2.687 6 6s-2.686 6-6 6c-3.314 0-6-2.687-6-6S60.686 77 64 77zM53 88c3.313 0 6 2.686 6 6s-2.687 6-6 6-6-2.687-6-6C47 90.686 49.687 88 53 88z" fill="black"></path><circle cx="75" cy="94" r="4.0" fill="black"></circle></svg></g></svg></g></svg></g><defs><mask></mask></defs></svg><rect width="395.5199999999999" height="73.3135540374645" fill="black" stroke="none" visibility="hidden"></rect></g></mask><linearGradient x1="0" x2="1" y1="0.5" y2="0.5" id="8a63df07-6646-4631-8665-9bf395b25447"><stop stop-color="#ffa62e" offset="0"></stop><stop stop-color="#f71b3d" offset="1"></stop></linearGradient><rect width="395.5199999999999" height="73.3135540374645" fill="url(#8a63df07-6646-4631-8665-9bf395b25447)" mask="url(#9c8fd820-7a11-4ef7-bd52-de475f4f565a)" data-fill-palette-color="primary"></rect></svg><rect width="395.5199999999999" height="73.3135540374645" fill="none" stroke="none" visibility="hidden"></rect></g></svg></g></svg>