<svg xmlns="http://www.w3.org/2000/svg" version="1.1" xmlns:xlink="http://www.w3.org/1999/xlink" xmlns:svgjs="http://svgjs.dev/svgjs" width="2000" height="398" viewBox="0 0 2000 398"><g transform="matrix(1,0,0,1,-1.2121212121212466,0.16307324619396013)"><svg viewBox="0 0 396 79" data-background-color="#ebe3d6" preserveAspectRatio="xMidYMid meet" height="398" width="2000" xmlns="http://www.w3.org/2000/svg" xmlns:xlink="http://www.w3.org/1999/xlink"><g id="tight-bounds" transform="matrix(1,0,0,1,0.2400000000000091,-0.03236881017417659)"><svg viewBox="0 0 395.52 79.06473762034834" height="79.06473762034834" width="395.52"><g><svg viewBox="0 0 515.1930963102735 102.98747720364742" height="79.06473762034834" width="395.52"><g transform="matrix(1,0,0,1,119.67309631027356,0)"><svg viewBox="0 0 395.5199999999999 102.98747720364742" height="102.98747720364742" width="395.5199999999999"><g id="textblocktransform"><svg viewBox="0 0 395.5199999999999 102.98747720364742" height="102.98747720364742" width="395.5199999999999" id="textblock"><g><svg viewBox="0 0 395.5199999999999 102.98747720364742" height="102.98747720364742" width="395.5199999999999"><g transform="matrix(1,0,0,1,0,0)"><svg width="395.5199999999999" viewBox="1.35 -40.35 197.38 51.400000000000006" height="102.98747720364742" data-palette-color="url(#28556438-c3a2-4bb1-ba2b-d4036c20c3a7)"></svg></g></svg></g></svg></g></svg></g><g transform="matrix(1,0,0,1,0,3.813626280851061)"><svg viewBox="0 0 95.3602246419453 95.3602246419453" height="95.3602246419453" width="95.3602246419453"><g><svg xmlns="http://www.w3.org/2000/svg" xmlns:xlink="http://www.w3.org/1999/xlink" version="1.1" x="0" y="0" viewBox="0 0 128 128" style="enable-background:new 0 0 128 128;" xml:space="preserve" height="95.3602246419453" width="95.3602246419453" class="icon-icon-0" data-fill-palette-color="accent" id="icon-0"><path d="M0 60v4 56c0 4.418 3.582 8 8 8h112c4.418 0 8-3.582 8-8V64v-4V44H0V60zM106.317 48H124v12h-22.188L106.317 48zM66.133 48h17.956l-4.505 12H61.628L66.133 48zM25.948 48h17.956l-4.505 12H21.443L25.948 48zM4 64h120v56c0 2.206-1.794 4-4 4H8c-2.206 0-4-1.794-4-4V64z" fill="#f37a38" data-fill-palette-color="accent"></path><path d="M118.084 0c-0.454 0-0.915 0.038-1.377 0.118L6.613 19.151c-4.344 0.75-7.25 4.85-6.493 9.154L2.177 40 128 18.249l-2.058-11.692C125.266 2.71 121.893 0 118.084 0zM40.134 29.379l-17.64 3.05 2.294-12.361 17.639-3.048L40.134 29.379zM79.617 22.554l-17.639 3.049 2.292-12.36 17.64-3.05L79.617 22.554zM101.462 18.777l2.292-12.36 13.632-2.356C117.618 4.021 117.852 4 118.084 4c1.939 0 3.587 1.367 3.919 3.25l1.362 7.741L101.462 18.777z" fill="#f37a38" data-fill-palette-color="accent"></path><circle cx="64" cy="105" r="4.0" fill="#f37a38" data-fill-palette-color="accent"></circle><circle cx="64" cy="83" r="4.0" fill="#f37a38" data-fill-palette-color="accent"></circle><circle cx="53" cy="94" r="4.0" fill="#f37a38" data-fill-palette-color="accent"></circle><path d="M62.857 119.971C62.906 119.979 62.949 120 63 120h26c0.552 0 1-0.447 1-1s-0.448-1-1-1H74.011C83.4 114.079 90 104.812 90 94.001 90 79.641 78.359 68 64 68S38 79.641 38 94.001C38 107.976 49.029 119.372 62.857 119.971zM64 111c-3.314 0-6-2.687-6-6s2.686-6 6-6c3.314 0 6 2.687 6 6S67.314 111 64 111zM75 88c3.313 0 6 2.686 6 6s-2.687 6-6 6-6-2.686-6-6S71.687 88 75 88zM64 77c3.314 0 6 2.687 6 6s-2.686 6-6 6c-3.314 0-6-2.687-6-6S60.686 77 64 77zM53 88c3.313 0 6 2.686 6 6s-2.687 6-6 6-6-2.687-6-6C47 90.686 49.687 88 53 88z" fill="#f37a38" data-fill-palette-color="accent"></path><circle cx="75" cy="94" r="4.0" fill="#f37a38" data-fill-palette-color="accent"></circle></svg></g></svg></g></svg></g><defs></defs><mask id="32a483d1-060e-4893-97d5-90a5bdceaef5"><g id="SvgjsG3576"><svg viewBox="0 0 395.52 79.06473762034834" height="79.06473762034834" width="395.52"><g><svg viewBox="0 0 515.1930963102735 102.98747720364742" height="79.06473762034834" width="395.52"><g transform="matrix(1,0,0,1,119.67309631027356,0)"><svg viewBox="0 0 395.5199999999999 102.98747720364742" height="102.98747720364742" width="395.5199999999999"><g id="SvgjsG3575"><svg viewBox="0 0 395.5199999999999 102.98747720364742" height="102.98747720364742" width="395.5199999999999" id="SvgjsSvg3574"><g><svg viewBox="0 0 395.5199999999999 102.98747720364742" height="102.98747720364742" width="395.5199999999999"><g transform="matrix(1,0,0,1,0,0)"><svg width="395.5199999999999" viewBox="1.35 -40.35 197.38 51.400000000000006" height="102.98747720364742" data-palette-color="url(#28556438-c3a2-4bb1-ba2b-d4036c20c3a7)"><path d="M29.95-34.65L32 0 24.6 0 24.3-13.75Q24.15-18.5 24.15-23L24.15-23Q24.15-26.15 24.2-27.65L24.2-27.65 20.35-3.7 13-3.7 8.95-27.7Q9.05-24.9 9.05-19.9L9.05-19.9Q9.05-15.85 9-13.65L9-13.65 8.7 0 1.35 0 3.45-34.65 13.15-34.65 16.8-10.95 20.1-34.65 29.95-34.65ZM45.7-27.4Q50.9-27.4 53.82-23.85 56.75-20.3 56.75-13.25L56.75-13.25Q56.75-6.5 53.82-2.83 50.9 0.85 45.7 0.85L45.7 0.85Q40.5 0.85 37.57-2.73 34.65-6.3 34.65-13.3L34.65-13.3Q34.65-20.15 37.57-23.78 40.5-27.4 45.7-27.4L45.7-27.4ZM45.7-21.8Q43.95-21.8 43.17-19.88 42.4-17.95 42.4-13.3L42.4-13.3Q42.4-8.5 43.17-6.6 43.95-4.7 45.7-4.7L45.7-4.7Q47.45-4.7 48.22-6.63 49-8.55 49-13.25L49-13.25Q49-18 48.22-19.9 47.45-21.8 45.7-21.8L45.7-21.8ZM72.8-26.55L80.1-26.55 73.5 0 64.6 0 57.8-26.55 65.5-26.55 69.05-5.75 72.8-26.55ZM82.09-26.55L89.64-26.55 89.64 0 82.09 0 82.09-26.55ZM85.79-40.35Q87.74-40.35 88.92-39.13 90.09-37.9 90.09-36L90.09-36Q90.09-34.15 88.89-32.93 87.69-31.7 85.79-31.7L85.79-31.7Q83.89-31.7 82.69-32.93 81.49-34.15 81.49-36L81.49-36Q81.49-37.9 82.69-39.13 83.89-40.35 85.79-40.35L85.79-40.35ZM114.29-13.8Q114.29-12.2 114.14-11.05L114.14-11.05 100.64-11.05Q100.89-7.45 101.97-6.08 103.04-4.7 105.09-4.7L105.09-4.7Q106.44-4.7 107.69-5.23 108.94-5.75 110.39-6.85L110.39-6.85 113.49-2.75Q109.79 0.85 104.54 0.85L104.54 0.85Q98.94 0.85 96.04-2.83 93.14-6.5 93.14-13.1L93.14-13.1Q93.14-19.7 95.92-23.55 98.69-27.4 103.84-27.4L103.84-27.4Q108.74-27.4 111.52-23.93 114.29-20.45 114.29-13.8L114.29-13.8ZM106.94-15.6L106.94-15.95Q106.94-19.35 106.27-20.88 105.59-22.4 103.89-22.4L103.89-22.4Q102.39-22.4 101.62-20.93 100.84-19.45 100.64-15.6L100.64-15.6 106.94-15.6ZM130.99-27.4Q134.89-27.4 136.94-23.78 138.99-20.15 138.99-13.35L138.99-13.35Q138.99-9.05 137.91-5.83 136.84-2.6 134.89-0.88 132.94 0.85 130.29 0.85L130.29 0.85Q127.19 0.85 125.14-1.8L125.14-1.8 125.14 10.25 117.59 11.05 117.59-26.55 124.29-26.55 124.59-23.65Q125.89-25.6 127.44-26.5 128.99-27.4 130.99-27.4L130.99-27.4ZM128.09-4.75Q129.59-4.75 130.41-6.7 131.24-8.65 131.24-13.25L131.24-13.25Q131.24-18.2 130.54-20.03 129.84-21.85 128.39-21.85L128.39-21.85Q126.59-21.85 125.14-19.05L125.14-19.05 125.14-6.8Q126.39-4.75 128.09-4.75L128.09-4.75ZM148.94 0.85Q145.79 0.85 144.04-1 142.29-2.85 142.29-6.05L142.29-6.05 142.29-37.1 149.84-37.9 149.84-6.4Q149.84-5.15 150.89-5.15L150.89-5.15Q151.19-5.15 151.79-5.3L151.79-5.3 153.14-0.1Q152.34 0.3 151.24 0.58 150.14 0.85 148.94 0.85L148.94 0.85ZM175.43-13.8Q175.43-12.2 175.28-11.05L175.28-11.05 161.78-11.05Q162.03-7.45 163.11-6.08 164.18-4.7 166.23-4.7L166.23-4.7Q167.58-4.7 168.83-5.23 170.08-5.75 171.53-6.85L171.53-6.85 174.63-2.75Q170.93 0.85 165.68 0.85L165.68 0.85Q160.08 0.85 157.18-2.83 154.28-6.5 154.28-13.1L154.28-13.1Q154.28-19.7 157.06-23.55 159.83-27.4 164.98-27.4L164.98-27.4Q169.88-27.4 172.66-23.93 175.43-20.45 175.43-13.8L175.43-13.8ZM168.08-15.6L168.08-15.95Q168.08-19.35 167.41-20.88 166.73-22.4 165.03-22.4L165.03-22.4Q163.53-22.4 162.76-20.93 161.98-19.45 161.78-15.6L161.78-15.6 168.08-15.6ZM197.58-26.55L191.78-14.2 198.73 0 190.83 0 187.18-10.1 183.73 0 175.98 0 182.83-13.95 176.58-26.55 184.38-26.55 187.28-17.85 190.03-26.55 197.58-26.55Z" opacity="1" transform="matrix(1,0,0,1,0,0)" fill="white" class="wordmark-text-0" id="SvgjsPath3573"></path></svg></g></svg></g></svg></g></svg></g><g transform="matrix(1,0,0,1,0,3.813626280851061)"><svg viewBox="0 0 95.3602246419453 95.3602246419453" height="95.3602246419453" width="95.3602246419453"><g><svg xmlns="http://www.w3.org/2000/svg" xmlns:xlink="http://www.w3.org/1999/xlink" version="1.1" x="0" y="0" viewBox="0 0 128 128" style="enable-background:new 0 0 128 128;" xml:space="preserve" height="95.3602246419453" width="95.3602246419453" class="icon-icon-0" data-fill-palette-color="accent" id="SvgjsSvg3572"><path d="M0 60v4 56c0 4.418 3.582 8 8 8h112c4.418 0 8-3.582 8-8V64v-4V44H0V60zM106.317 48H124v12h-22.188L106.317 48zM66.133 48h17.956l-4.505 12H61.628L66.133 48zM25.948 48h17.956l-4.505 12H21.443L25.948 48zM4 64h120v56c0 2.206-1.794 4-4 4H8c-2.206 0-4-1.794-4-4V64z" fill="black"></path><path d="M118.084 0c-0.454 0-0.915 0.038-1.377 0.118L6.613 19.151c-4.344 0.75-7.25 4.85-6.493 9.154L2.177 40 128 18.249l-2.058-11.692C125.266 2.71 121.893 0 118.084 0zM40.134 29.379l-17.64 3.05 2.294-12.361 17.639-3.048L40.134 29.379zM79.617 22.554l-17.639 3.049 2.292-12.36 17.64-3.05L79.617 22.554zM101.462 18.777l2.292-12.36 13.632-2.356C117.618 4.021 117.852 4 118.084 4c1.939 0 3.587 1.367 3.919 3.25l1.362 7.741L101.462 18.777z" fill="black"></path><circle cx="64" cy="105" r="4.0" fill="black"></circle><circle cx="64" cy="83" r="4.0" fill="black"></circle><circle cx="53" cy="94" r="4.0" fill="black"></circle><path d="M62.857 119.971C62.906 119.979 62.949 120 63 120h26c0.552 0 1-0.447 1-1s-0.448-1-1-1H74.011C83.4 114.079 90 104.812 90 94.001 90 79.641 78.359 68 64 68S38 79.641 38 94.001C38 107.976 49.029 119.372 62.857 119.971zM64 111c-3.314 0-6-2.687-6-6s2.686-6 6-6c3.314 0 6 2.687 6 6S67.314 111 64 111zM75 88c3.313 0 6 2.686 6 6s-2.687 6-6 6-6-2.686-6-6S71.687 88 75 88zM64 77c3.314 0 6 2.687 6 6s-2.686 6-6 6c-3.314 0-6-2.687-6-6S60.686 77 64 77zM53 88c3.313 0 6 2.686 6 6s-2.687 6-6 6-6-2.687-6-6C47 90.686 49.687 88 53 88z" fill="black"></path><circle cx="75" cy="94" r="4.0" fill="black"></circle></svg></g></svg></g></svg></g><defs><mask></mask></defs></svg><rect width="395.52" height="79.06473762034834" fill="black" stroke="none" visibility="hidden"></rect></g></mask><linearGradient x1="0" x2="1" y1="0.5" y2="0.5" id="28556438-c3a2-4bb1-ba2b-d4036c20c3a7"><stop stop-color="#ffa62e" offset="0"></stop><stop stop-color="#f71b3d" offset="1"></stop></linearGradient><rect width="395.52" height="79.06473762034834" fill="url(#28556438-c3a2-4bb1-ba2b-d4036c20c3a7)" mask="url(#32a483d1-060e-4893-97d5-90a5bdceaef5)" data-fill-palette-color="primary"></rect></svg><rect width="395.52" height="79.06473762034834" fill="none" stroke="none" visibility="hidden"></rect></g></svg></g></svg>